<?xml version="1.0" encoding="UTF-8" standalone="no"?>
<svg
   xmlns:dc="http://purl.org/dc/elements/1.1/"
   xmlns:cc="http://creativecommons.org/ns#"
   xmlns:rdf="http://www.w3.org/1999/02/22-rdf-syntax-ns#"
   xmlns:svg="http://www.w3.org/2000/svg"
   xmlns="http://www.w3.org/2000/svg"
   xmlns:sodipodi="http://sodipodi.sourceforge.net/DTD/sodipodi-0.dtd"
   xmlns:inkscape="http://www.inkscape.org/namespaces/inkscape"
   width="8cm"
   height="5cm"
   viewBox="0 0 80 49.999999"
   version="1.1"
   id="svg8"
   inkscape:version="1.0.1 (3bc2e813f5, 2020-09-07)"
   sodipodi:docname="manzana.svg">
  <defs
     id="defs2">
    <mask
       maskUnits="userSpaceOnUse"
       id="mask1052">
      <ellipse
         style="opacity:1;fill:#ffffff;fill-opacity:1;stroke:#000000;stroke-width:0.179814;stroke-miterlimit:4;stroke-dasharray:none;stroke-opacity:1"
         id="ellipse1054"
         cx="67.006836"
         cy="16.265621"
         rx="5.2299523"
         ry="2.0053995" />
    </mask>
  </defs>
  <sodipodi:namedview
     id="base"
     pagecolor="#ffffff"
     bordercolor="#666666"
     borderopacity="1.0"
     inkscape:pageopacity="0.0"
     inkscape:pageshadow="2"
     inkscape:zoom="1.6514684"
     inkscape:cx="137.95542"
     inkscape:cy="94.488189"
     inkscape:document-units="mm"
     inkscape:current-layer="layer1"
     inkscape:document-rotation="0"
     showgrid="false"
     units="cm"
     inkscape:window-width="1208"
     inkscape:window-height="736"
     inkscape:window-x="72"
     inkscape:window-y="27"
     inkscape:window-maximized="1" />
  <metadata
     id="metadata5">
    <rdf:RDF>
      <cc:Work
         rdf:about="">
        <dc:format>image/svg+xml</dc:format>
        <dc:type
           rdf:resource="http://purl.org/dc/dcmitype/StillImage" />
        <dc:title></dc:title>
      </cc:Work>
    </rdf:RDF>
  </metadata>
  <g
     inkscape:label="Layer 1"
     inkscape:groupmode="layer"
     id="layer1">
    <rect
       style="opacity:1;fill:#fffffe;fill-opacity:1;stroke:none;stroke-width:0.264999;stroke-miterlimit:4;stroke-dasharray:none;stroke-opacity:1"
       id="rect1810"
       width="80"
       height="50"
       x="1.110223e-16"
       y="0" />
    <g
       id="g945"
       transform="matrix(0.79198168,0,0,0.79198168,7.8387137,8.8162213)">
      <g
         id="g935"
         transform="matrix(0.91689437,0,0,0.87008662,4.2186183,7.7149502)">
        <g
           id="g906"
           transform="translate(0.18457676,0.23627032)">
          <ellipse
             style="opacity:0.971;fill:#ff2600;fill-opacity:1;stroke-width:0.0870541"
             id="path856"
             transform="matrix(0.99308405,-0.11740562,0.12156614,0.99258333,0,0)"
             ry="15.06665"
             rx="9.8992958"
             cy="34.638802"
             cx="30.817652" />
          <ellipse
             style="opacity:0.971;fill:#ff2600;fill-opacity:1;stroke-width:0.087054"
             id="path856-7"
             cx="-47.230701"
             cy="25.407015"
             rx="9.8992949"
             ry="15.06665"
             transform="matrix(-0.99308404,-0.11740563,-0.12156613,0.99258333,0,0)" />
        </g>
        <path
           style="fill:#89d600;fill-opacity:1;stroke:none;stroke-width:0.264583px;stroke-linecap:butt;stroke-linejoin:miter;stroke-opacity:1"
           d="m 43.314523,10.366251 c -3.519502,3.417517 -2.885576,7.429759 -2.885576,7.429759 -1.049618,0.442805 -0.837147,0.730818 -0.837147,0.730818 -1.020087,-1.019839 -1.785152,-1.224056 -1.785152,-1.224056 0,0 -0.458245,-4.99833 3.774522,-8.2626848 z"
           id="path908" />
      </g>
      <path
         style="fill:#ffffff;fill-opacity:1;stroke:none;stroke-width:0.264583px;stroke-linecap:butt;stroke-linejoin:miter;stroke-opacity:1"
         d="m 50.684689,27.438328 c -0.863092,-3.09427 -3.023632,-2.951065 -3.023632,-2.951065 0,0 0.936185,1.079745 0.936185,2.590858 z"
         id="path937" />
    </g>
    <g
       id="g1015"
       transform="matrix(1.1094546,0,0,1.1094546,-0.02367026,-5.8896932)">
      <path
         style="fill:#f8ff00;fill-opacity:1;stroke:#000000;stroke-width:0.264583px;stroke-linecap:butt;stroke-linejoin:miter;stroke-opacity:1"
         d="M 7,22 C 7,22 6.7105602,19.784654 5,18 3.2843075,16.209992 3.9681764,11.15418 8.5,11 c 4.622958,-0.15728 5.484909,5.273239 3.5,7 -1.87431,1.630547 -2,4 -2,4 z"
         id="path953"
         sodipodi:nodetypes="cssscc" />
      <path
         style="fill:none;stroke:#000000;stroke-width:0.264583px;stroke-linecap:butt;stroke-linejoin:miter;stroke-opacity:1"
         d="m 8.204369,11.97359 c 0,0 -2.5120925,0.327343 -3.3313214,3.112778"
         id="path955" />
      <rect
         style="opacity:0.971;fill:#000100;fill-opacity:1;stroke:#000000;stroke-width:0.0723095;stroke-opacity:1"
         id="rect960"
         width="3.0158043"
         height="0.44953811"
         x="6.9920979"
         y="22.521265" />
      <rect
         style="opacity:0.971;fill:#000100;fill-opacity:1;stroke:#000000;stroke-width:0.0556048;stroke-opacity:1"
         id="rect960-3-5"
         width="3.0325089"
         height="0.26436388"
         x="7.0000005"
         y="24.027802" />
      <path
         style="opacity:1;fill:#000100;fill-opacity:1;stroke:#000000;stroke-width:0.065;stroke-linecap:butt;stroke-linejoin:miter;stroke-miterlimit:4;stroke-dasharray:none;stroke-opacity:1"
         d="m 7.0000005,24.292166 c 1.5702631,1.225796 2.9999995,0 2.9999995,0"
         id="path992" />
      <rect
         style="opacity:0.971;fill:#000100;fill-opacity:1;stroke:#000000;stroke-width:0.0723096;stroke-opacity:1"
         id="rect960-6"
         width="3.0158043"
         height="0.44953811"
         x="6.9920979"
         y="23.286156" />
    </g>
    <g
       id="g1123"
       transform="matrix(1.1637645,0,0,1.1637645,-11.098483,-0.49244208)">
      <ellipse
         style="fill:#ffffff;fill-opacity:1;stroke:#000000;stroke-width:0.174619;stroke-miterlimit:4;stroke-dasharray:none;stroke-opacity:1"
         id="path1019"
         cx="67.230682"
         cy="15.820044"
         rx="2.0730062"
         ry="2.0067115"
         mask="url(#mask1052)"
         transform="matrix(1.5175918,0,0,1.5175918,-35.546808,-13.892582)" />
      <ellipse
         style="fill:#000000;fill-opacity:1;stroke:none;stroke-width:0.575859;stroke-miterlimit:4;stroke-dasharray:none;stroke-opacity:1"
         id="path1056"
         cx="66.384239"
         cy="10.324928"
         rx="1.5769879"
         ry="1.5236554" />
      <path
         style="fill:none;stroke:#000000;stroke-width:0.264583px;stroke-linecap:butt;stroke-linejoin:miter;stroke-opacity:1"
         d="m 75.221177,10.560851 c -9.587384,-6.2679599 -16.617508,0.0012 -16.617508,0.0012 0,0 6.173374,8.354188 16.617508,-0.0012 z"
         id="path1064"
         sodipodi:nodetypes="ccc" />
      <path
         style="fill:none;stroke:#000000;stroke-width:0.264583px;stroke-linecap:butt;stroke-linejoin:miter;stroke-opacity:1"
         d="m 75.221176,10.560851 c -11.677325,6.265642 -16.617508,0.0012 -16.617508,0.0012 0,0 7.313849,-9.4008218 16.617508,-0.0012 z"
         id="path1066" />
      <ellipse
         style="opacity:1;fill:#ffffff;fill-opacity:1;stroke:none;stroke-width:0.264999;stroke-miterlimit:4;stroke-dasharray:none;stroke-opacity:1"
         id="path1116"
         cx="67.512939"
         cy="9.2897892"
         rx="0.620049"
         ry="0.59946173" />
    </g>
    <path
       style="opacity:1;fill:#ff0000;fill-opacity:1;stroke:none;stroke-width:0.264999;stroke-miterlimit:4;stroke-dasharray:none;stroke-opacity:1"
       id="path1150"
       d="m 11.070876,18.518308 c 3.947905,1.504008 7.636421,3.665302 10.991761,6.225682 0.654301,0.499282 1.272915,1.043674 1.909372,1.565511 1.584357,1.410351 3.042211,2.968734 4.223549,4.734966 0.153578,0.229613 0.290457,0.469969 0.435684,0.704953 0,0 1.509446,-0.890976 1.509446,-0.890976 v 0 c -1.552803,-1.901206 -3.305599,-3.625291 -5.252048,-5.1263 -0.674235,-0.500126 -1.336609,-1.01665 -2.022702,-1.500378 -2.386541,-1.682625 -4.892799,-3.183639 -7.329583,-4.789649 -0.642698,-0.423582 -1.268694,-0.872005 -1.906405,-1.303059 -0.327389,-0.221295 -0.659212,-0.435959 -0.988818,-0.653938 0,0 -1.570256,1.033188 -1.570256,1.033188 z" />
    <path
       style="opacity:1;fill:#fffa00;fill-opacity:1;stroke:none;stroke-width:0.264999;stroke-miterlimit:4;stroke-dasharray:none;stroke-opacity:1"
       id="path1150-9"
       d="m 11.444931,17.706666 c 3.947905,1.504008 7.636421,3.665302 10.991761,6.225682 0.654301,0.499282 1.272915,1.043674 1.909372,1.565511 1.584357,1.410351 3.042211,2.968734 4.223549,4.734966 0.153578,0.229613 0.290457,0.469969 0.435684,0.704953 0,0 1.509446,-0.890976 1.509446,-0.890976 v 0 c -1.552803,-1.901206 -3.305599,-3.625291 -5.252048,-5.1263 -0.674235,-0.500126 -1.336609,-1.01665 -2.022702,-1.500378 -2.386541,-1.682625 -4.892799,-3.183639 -7.329583,-4.789649 -0.642698,-0.423582 -1.268694,-0.872005 -1.906405,-1.303059 -0.327389,-0.221295 -0.659212,-0.435959 -0.988818,-0.653938 0,0 -1.570256,1.033188 -1.570256,1.033188 z" />
    <path
       style="opacity:1;fill:#00b600;fill-opacity:1;stroke:none;stroke-width:0.264999;stroke-miterlimit:4;stroke-dasharray:none;stroke-opacity:1"
       id="path1150-2"
       d="m 11.46187,17.16648 c 3.947905,1.504008 7.636421,3.665303 10.991761,6.225683 0.654301,0.499282 1.272915,1.043673 1.909372,1.565511 1.584357,1.41035 3.042211,2.968733 4.223549,4.734965 0.153578,0.229613 0.290457,0.469969 0.435684,0.704953 0,0 1.509446,-0.890976 1.509446,-0.890976 v 0 c -1.552803,-1.901206 -3.305599,-3.62529 -5.252048,-5.126299 -0.674235,-0.500126 -1.336609,-1.01665 -2.022702,-1.500378 -2.386541,-1.682626 -4.892799,-3.18364 -7.329583,-4.78965 -0.642698,-0.423582 -1.268694,-0.872005 -1.906405,-1.303059 -0.327389,-0.221295 -0.659212,-0.435959 -0.988818,-0.653938 0,0 -1.570256,1.033188 -1.570256,1.033188 z" />
    <path
       style="opacity:1;fill:#0000ff;fill-opacity:1;stroke:none;stroke-width:0.264999;stroke-miterlimit:4;stroke-dasharray:none;stroke-opacity:1"
       id="path1150-1"
       d="m 11.46187,16.108146 c 3.947905,1.504008 7.636421,3.665303 10.991761,6.225683 0.654301,0.499282 1.272915,1.043673 1.909372,1.565511 1.584357,1.41035 3.042211,2.968733 4.223549,4.734965 0.153578,0.229613 0.290457,0.469969 0.435684,0.704953 0,0 1.509446,-0.890976 1.509446,-0.890976 v 0 c -1.552803,-1.901206 -3.305599,-3.62529 -5.252048,-5.126299 -0.674235,-0.500126 -1.336609,-1.01665 -2.022702,-1.500378 -2.386541,-1.682626 -4.892799,-3.18364 -7.329583,-4.78965 -0.642698,-0.423582 -1.268694,-0.872005 -1.906405,-1.303059 -0.327389,-0.221295 -0.659212,-0.435959 -0.988818,-0.653938 0,0 -1.570256,1.033188 -1.570256,1.033188 z" />
    <path
       style="opacity:1;fill:#9d00ff;fill-opacity:1;stroke:none;stroke-width:0.264999;stroke-miterlimit:4;stroke-dasharray:none;stroke-opacity:1"
       id="path1150-7"
       d="m 11.722526,15.43923 c 3.947905,1.504008 7.636421,3.665302 10.991761,6.225682 0.654301,0.499282 1.272915,1.043674 1.909372,1.565511 1.584357,1.410351 3.042211,2.968734 4.223549,4.734966 0.153578,0.229613 0.290457,0.469969 0.435684,0.704953 0,0 1.509446,-0.890976 1.509446,-0.890976 v 0 c -1.552803,-1.901206 -3.305599,-3.625291 -5.252048,-5.1263 -0.674235,-0.500126 -1.336609,-1.01665 -2.022702,-1.500378 -2.38654,-1.682625 -4.892798,-3.183639 -7.329583,-4.789649 -0.642698,-0.423582 -1.268694,-0.872005 -1.906405,-1.30306 -0.327389,-0.221295 -0.659212,-0.435959 -0.988818,-0.653938 0,0 -1.570256,1.033189 -1.570256,1.033189 z" />
    <path
       style="opacity:1;fill:#ff0000;fill-opacity:1;stroke:none;stroke-width:0.210505;stroke-miterlimit:4;stroke-dasharray:none;stroke-opacity:1"
       id="path1150-3"
       d="m 61.677313,16.1494 c -3.002761,1.247757 -5.808228,3.040809 -8.360285,5.164952 -0.497659,0.414214 -0.968174,0.865854 -1.45226,1.298779 -1.205054,1.170054 -2.313892,2.462921 -3.212414,3.928222 -0.116817,0.190491 -0.220919,0.389895 -0.331376,0.584843 0,0 -1.148079,-0.739171 -1.148079,-0.739171 v 0 c 1.181055,-1.57728 2.514223,-3.007615 3.994685,-4.252881 0.512819,-0.414915 1.016618,-0.843432 1.538457,-1.244744 1.815192,-1.395937 3.721442,-2.641211 5.574846,-3.973587 0.488836,-0.351413 0.964965,-0.723433 1.450007,-1.081044 0.249009,-0.183593 0.501394,-0.361681 0.752089,-0.542522 0,0 1.19433,0.857153 1.19433,0.857153 z" />
  </g>
</svg>
